<svg xmlns="http://www.w3.org/2000/svg" version="1.1" height="384" width="432" viewBox="0 0 432 384" class="diagram" text-anchor="middle" font-family="monospace" font-size="13px" stroke-linecap="round">
<path d="M 8,64 L 8,304" fill="none" stroke="black"/>
<path d="M 32,96 L 32,128" fill="none" stroke="black"/>
<path d="M 32,240 L 32,272" fill="none" stroke="black"/>
<path d="M 80,32 L 80,56" fill="none" stroke="black"/>
<path d="M 80,136 L 80,168" fill="none" stroke="black"/>
<path d="M 80,192 L 80,232" fill="none" stroke="black"/>
<path d="M 136,96 L 136,128" fill="none" stroke="black"/>
<path d="M 136,240 L 136,272" fill="none" stroke="black"/>
<path d="M 160,64 L 160,304" fill="none" stroke="black"/>
<path d="M 8,64 L 160,64" fill="none" stroke="black"/>
<path d="M 32,96 L 136,96" fill="none" stroke="black"/>
<path d="M 32,128 L 136,128" fill="none" stroke="black"/>
<path d="M 32,240 L 136,240" fill="none" stroke="black"/>
<path d="M 32,272 L 136,272" fill="none" stroke="black"/>
<path d="M 8,304 L 160,304" fill="none" stroke="black"/>
<polygon class="arrowhead" points="88,232 76,226.4 76,237.6" fill="black" transform="rotate(90,80,232)"/>
<polygon class="arrowhead" points="88,168 76,162.4 76,173.6" fill="black" transform="rotate(90,80,168)"/>
<g class="text">
<text x="80" y="20">t-lag, ..., t=0</text>
<text x="244" y="20">Past Traffic</text>
<text x="52" y="36">N , ..</text>
<text x="88" y="36">,</text>
<text x="112" y="36">A</text>
<text x="320" y="36">(Abnormal (A) / Normal (N))</text>
<text x="36" y="84">MBFS</text>
<text x="80" y="84">v</text>
<text x="84" y="116">Forecaster</text>
<text x="88" y="180">t=0, ..., tstep</text>
<text x="272" y="180">Predicted Traffic</text>
<text x="52" y="196">p0, ..</text>
<text x="88" y="196">,</text>
<text x="128" y="196">pstep</text>
<text x="264" y="196">(Probabilistic)</text>
<text x="84" y="260">Classifier</text>
<text x="80" y="292">|</text>
<text x="80" y="324">v</text>
<text x="88" y="340">t=0, ..., tstep</text>
<text x="280" y="340">Predicted Traffic</text>
<text x="60" y="356">N , ...,</text>
<text x="112" y="356">A</text>
<text x="320" y="356">(Abnormal (A) / Normal (N))</text>
</g>
</svg>
