<svg xmlns="http://www.w3.org/2000/svg" version="1.1" height="480" width="472" viewBox="0 0 472 480" class="diagram" text-anchor="middle" font-family="monospace" font-size="13px" stroke-linecap="round">
<path d="M 8,128 L 8,368" fill="none" stroke="black"/>
<path d="M 32,160 L 32,192" fill="none" stroke="black"/>
<path d="M 32,304 L 32,336" fill="none" stroke="black"/>
<path d="M 80,32 L 80,72" fill="none" stroke="black"/>
<path d="M 80,96 L 80,120" fill="none" stroke="black"/>
<path d="M 80,200 L 80,232" fill="none" stroke="black"/>
<path d="M 80,256 L 80,296" fill="none" stroke="black"/>
<path d="M 136,160 L 136,192" fill="none" stroke="black"/>
<path d="M 136,304 L 136,336" fill="none" stroke="black"/>
<path d="M 160,128 L 160,368" fill="none" stroke="black"/>
<path d="M 360,320 L 360,352" fill="none" stroke="black"/>
<path d="M 400,360 L 400,408" fill="none" stroke="black"/>
<path d="M 408,32 L 408,88" fill="none" stroke="black"/>
<path d="M 408,104 L 408,312" fill="none" stroke="black"/>
<path d="M 448,360 L 448,448" fill="none" stroke="black"/>
<path d="M 464,320 L 464,352" fill="none" stroke="black"/>
<path d="M 80,32 L 408,32" fill="none" stroke="black"/>
<path d="M 8,128 L 160,128" fill="none" stroke="black"/>
<path d="M 32,160 L 136,160" fill="none" stroke="black"/>
<path d="M 32,192 L 136,192" fill="none" stroke="black"/>
<path d="M 32,304 L 136,304" fill="none" stroke="black"/>
<path d="M 360,320 L 464,320" fill="none" stroke="black"/>
<path d="M 32,336 L 136,336" fill="none" stroke="black"/>
<path d="M 360,352 L 464,352" fill="none" stroke="black"/>
<path d="M 8,368 L 160,368" fill="none" stroke="black"/>
<path d="M 376,400 L 400,400" fill="none" stroke="black"/>
<path d="M 376,448 L 448,448" fill="none" stroke="black"/>
<polygon class="arrowhead" points="456,360 444,354.4 444,365.6" fill="black" transform="rotate(270,448,360)"/>
<path class="jump" d="M 408,104 C 414,104 414,88 408,88" fill="none" stroke="black"/><polygon class="arrowhead" points="408,360 396,354.4 396,365.6" fill="black" transform="rotate(270,400,360)"/>
<polygon class="arrowhead" points="88,296 76,290.4 76,301.6" fill="black" transform="rotate(90,80,296)"/>
<polygon class="arrowhead" points="88,232 76,226.4 76,237.6" fill="black" transform="rotate(90,80,232)"/>
<polygon class="arrowhead" points="88,72 76,66.4 76,77.6" fill="black" transform="rotate(90,80,72)"/>
<g class="text">
<text x="80" y="84">t-lag, ..., t=0</text>
<text x="244" y="84">Past Traffic</text>
<text x="48" y="100">N , ...</text>
<text x="104" y="100">A</text>
<text x="304" y="100">(Abnormal (A) / Normal (N</text>
<text x="416" y="100">)</text>
<text x="36" y="148">MBFS</text>
<text x="80" y="148">v</text>
<text x="84" y="180">Forecaster</text>
<text x="88" y="244">t=0, ..., tstep</text>
<text x="272" y="244">Predicted Traffic</text>
<text x="52" y="260">p0, ..</text>
<text x="88" y="260">,</text>
<text x="128" y="260">pstep</text>
<text x="264" y="260">(Probabilistic)</text>
<text x="84" y="324">Classifier</text>
<text x="412" y="340">Classifier</text>
<text x="80" y="356">|</text>
<text x="80" y="388">v</text>
<text x="88" y="404">t=0, ..., tstep</text>
<text x="280" y="404">Predicted Traffic</text>
<text x="60" y="420">N , ...,</text>
<text x="112" y="420">A</text>
<text x="320" y="420">(Abnormal (A) / Normal (N))</text>
<text x="88" y="452">t=0, ..., tstep</text>
<text x="276" y="452">Observer Traffic</text>
</g>
</svg>
