<svg xmlns="http://www.w3.org/2000/svg" version="1.1" height="480" width="1480" viewBox="0 0 1480 480" class="diagram" text-anchor="middle" font-family="monospace" font-size="13px" stroke-linecap="round">
<path d="M 8,64 L 8,160" fill="none" stroke="black"/>
<path d="M 176,64 L 176,160" fill="none" stroke="black"/>
<path d="M 416,16 L 416,272" fill="none" stroke="black"/>
<path d="M 464,112 L 464,208" fill="none" stroke="black"/>
<path d="M 504,64 L 504,104" fill="none" stroke="black"/>
<path d="M 520,112 L 520,208" fill="none" stroke="black"/>
<path d="M 616,16 L 616,112" fill="none" stroke="black"/>
<path d="M 616,160 L 616,272" fill="none" stroke="black"/>
<path d="M 728,16 L 728,304" fill="none" stroke="black"/>
<path d="M 768,16 L 768,112" fill="none" stroke="black"/>
<path d="M 768,160 L 768,256" fill="none" stroke="black"/>
<path d="M 936,16 L 936,112" fill="none" stroke="black"/>
<path d="M 936,160 L 936,256" fill="none" stroke="black"/>
<path d="M 1184,16 L 1184,272" fill="none" stroke="black"/>
<path d="M 1232,112 L 1232,208" fill="none" stroke="black"/>
<path d="M 1272,64 L 1272,104" fill="none" stroke="black"/>
<path d="M 1288,112 L 1288,208" fill="none" stroke="black"/>
<path d="M 1384,16 L 1384,80" fill="none" stroke="black"/>
<path d="M 1384,192 L 1384,272" fill="none" stroke="black"/>
<path d="M 416,16 L 616,16" fill="none" stroke="black"/>
<path d="M 768,16 L 936,16" fill="none" stroke="black"/>
<path d="M 1184,16 L 1384,16" fill="none" stroke="black"/>
<path d="M 768,48 L 936,48" fill="none" stroke="black"/>
<path d="M 8,64 L 176,64" fill="none" stroke="black"/>
<path d="M 944,64 L 1176,64" fill="none" stroke="black"/>
<path d="M 8,96 L 176,96" fill="none" stroke="black"/>
<path d="M 944,96 L 1176,96" fill="none" stroke="black"/>
<path d="M 184,112 L 408,112" fill="none" stroke="black"/>
<path d="M 464,112 L 520,112" fill="none" stroke="black"/>
<path d="M 768,112 L 936,112" fill="none" stroke="black"/>
<path d="M 1232,112 L 1288,112" fill="none" stroke="black"/>
<path d="M 184,144 L 408,144" fill="none" stroke="black"/>
<path d="M 8,160 L 176,160" fill="none" stroke="black"/>
<path d="M 768,160 L 936,160" fill="none" stroke="black"/>
<path d="M 768,192 L 936,192" fill="none" stroke="black"/>
<path d="M 464,208 L 520,208" fill="none" stroke="black"/>
<path d="M 944,208 L 1176,208" fill="none" stroke="black"/>
<path d="M 1232,208 L 1288,208" fill="none" stroke="black"/>
<path d="M 944,240 L 1176,240" fill="none" stroke="black"/>
<path d="M 768,256 L 936,256" fill="none" stroke="black"/>
<path d="M 416,272 L 616,272" fill="none" stroke="black"/>
<path d="M 1184,272 L 1384,272" fill="none" stroke="black"/>
<polygon class="arrowhead" points="1280,104 1268,98.4 1268,109.6" fill="black" transform="rotate(90,1272,104)"/>
<polygon class="arrowhead" points="1184,240 1172,234.4 1172,245.6" fill="black" transform="rotate(0,1176,240)"/>
<polygon class="arrowhead" points="1184,96 1172,90.4 1172,101.6" fill="black" transform="rotate(0,1176,96)"/>
<polygon class="arrowhead" points="952,208 940,202.4 940,213.6" fill="black" transform="rotate(180,944,208)"/>
<polygon class="arrowhead" points="952,64 940,58.4 940,69.6" fill="black" transform="rotate(180,944,64)"/>
<polygon class="arrowhead" points="512,104 500,98.4 500,109.6" fill="black" transform="rotate(90,504,104)"/>
<polygon class="arrowhead" points="416,144 404,138.4 404,149.6" fill="black" transform="rotate(0,408,144)"/>
<polygon class="arrowhead" points="192,112 180,106.4 180,117.6" fill="black" transform="rotate(180,184,112)"/>
<g class="text">
<text x="472" y="36">Local NWDAF</text>
<text x="792" y="36">AMF</text>
<text x="1240" y="36">Local NWDAF</text>
<text x="512" y="52">Model</text>
<text x="1056" y="52">NamfEventExposure_Subscribe</text>
<text x="1280" y="52">Model</text>
<text x="852" y="68">Namf_EventExposure</text>
<text x="32" y="84">AMF</text>
<text x="456" y="84">traffic</text>
<text x="1044" y="84">NamfEventExposure_Notify</text>
<text x="1224" y="84">traffic</text>
<text x="296" y="100">NamfEventExposure_Subscribe</text>
<text x="1200" y="100">...</text>
<text x="1384" y="100">AMF Predicted Traffic</text>
<text x="92" y="116">Namf_EventExposure</text>
<text x="1208" y="116">.</text>
<text x="1408" y="116">normal / abnormal</text>
<text x="284" y="132">NamfEventExposure_Notify</text>
<text x="616" y="132">AMF Predicted Traffic</text>
<text x="1208" y="132">.</text>
<text x="1348" y="132">..............</text>
<text x="440" y="148">.....</text>
<text x="492" y="148">MBFS</text>
<text x="640" y="148">normal / abnormal</text>
<text x="1216" y="148">...</text>
<text x="1260" y="148">MBFS</text>
<text x="1408" y="148">|</text>
<text x="568" y="164">...........</text>
<text x="628" y="164">..</text>
<text x="1208" y="164">.</text>
<text x="1384" y="164">SMF Predicted Traffic</text>
<text x="792" y="180">SMF</text>
<text x="1208" y="180">.</text>
<text x="1408" y="180">normal / abnormal</text>
<text x="1056" y="196">NsmfEventExposure_Subscribe</text>
<text x="1208" y="196">.</text>
<text x="1336" y="196">...........</text>
<text x="1396" y="196">..</text>
<text x="852" y="212">Nsmf_EventExposure</text>
<text x="1200" y="212">. .</text>
<text x="1044" y="228">NsmfEventExposure_Notify</text>
<text x="380" y="308">Single NWDAF monitoring with a single Network Function</text>
<text x="1132" y="308">Single NWDAF monitoring multiple Network Functions</text>
</g>
</svg>
